<?xml version="1.0" encoding="utf-8"?>
<!-- Generated by IcoMoon.io -->
<!DOCTYPE svg PUBLIC "-//W3C//DTD SVG 1.1//EN" "http://www.w3.org/Graphics/SVG/1.1/DTD/svg11.dtd">
<svg version="1.1" xmlns="http://www.w3.org/2000/svg" xmlns:xlink="http://www.w3.org/1999/xlink" width="512" height="512" viewBox="0 0 512 512">
<g>
</g>
	<path d="M188.867 402.616c3.696 22.272-2.243 46.039-18.596 64.604-28.211 31.242-77.23 34.161-108.431 5.959-31.16-28.959-34.16-77.24-5.939-109.189 17.101-17.817 40.12-26.726 63.15-24.514l274.821-304.538c17.050-19.292 47.534-20.787 66.099-3.697v0c19.303 17.808 20.777 47.534 3.697 66.837l-274.8 304.538zM243.835 242.196l-3.727-3.717 3.727-4.475-1.506-1.485-3.686 4.454-4.464-3.738-0.758 1.495 3.707 3.738-3.707 3.717 1.485 1.464 3.738-4.464 3.686 4.464 1.506-1.454zM217.826 271.902l-10.393-8.919-1.495 2.222 9.666 8.151 2.222-1.454zM214.119 237.742l-7.414 7.414 19.282 17.828 7.434-7.434-19.303-17.808zM140.575 406.323l262.942-291.881c5.223-5.212 5.223-14.090-0.727-19.313v0c-5.202-5.192-14.121-4.454-19.344 0.737l-262.912 291.881c-11.131-2.98-23.010 0-30.474 8.919-11.1 12.626-10.394 31.202 2.253 42.332 11.868 11.151 31.191 10.414 42.332-2.222 8.161-8.171 9.646-20.787 5.929-30.454z" fill="#000000" />
</svg>
